<?xml version="1.0" encoding="UTF-8"?>
<svg xmlns="http://www.w3.org/2000/svg" viewBox="0 0 128 128">
  <rect x="8" y="8" width="112" height="112" rx="24" fill="#5b5bd6"/>
  <path fill="#f3f3f3" d="M45 26h38c5 0 9 4 9 9 0 9-4 18-10 25l-6 6c-3 3-3 8 0 11l6 6c6 7 10 16 10 25 0 5-4 9-9 9H45c-5 0-9-4-9-9 0-9 4-18 10-25l6-6c3-3 3-8 0-11l-6-6c-6-7-10-16-10-25 0-5 4-9 9-9z"/>
  <path fill="#5b5bd6" d="M53 46h22c2 0 4 2 4 4 0 3-2 6-4 8l-3 2c-1 1-2 2-2 4v19c0 2 1 3 2 4l9 5c2 1 3 2 3 4 0 3-2 5-5 5H49c-3 0-5-2-5-5 0-2 1-3 3-4l9-5c1-1 2-2 2-4V64c0-2-1-3-2-4l-3-2c-2-2-4-5-4-8 0-2 2-4 4-4z"/>
</svg>
